# xmcd CD database file
#
# Track frame offsets:
#	182
#	12772
#	31200
#	45592
#	56255
#	66870
#	77417
#	86932
#	97815
#	112347
#	126230
#	140860
#	151007
#	166777
#	182840
#	193807
#	205585
#
# Disc length: 2905 seconds
#
# Revision: 2
# Processed by: cddbd v1.5.2PL0 Copyright (c) Steve Scherf et al.
# Submitted via: CDex 1.70beta2
#
DISCID=dd0b5711
DTITLE=Charley Pride - Legends CD2
DYEAR=2004
DGENRE=Country
TTITLE0=A Whole Lotta Things To Sing About
TTITLE1=Where Do I Put Her Memory
TTITLE2=Amazing Love
TTITLE3=I'm Just Me
TTITLE4=A Brand New Bed Of Roses
TTITLE5=Does My Ring Hurt Your Finger
TTITLE6=Don't Fight The Feelings Of Love
TTITLE7=The Easy Part's Over
TTITLE8=Kaw-Liga
TTITLE9=Never Been So Loved (In All My Life)
TTITLE10=Burgers And Fries
TTITLE11=Then Who Am I
TTITLE12=You're So Good When You're Bad
TTITLE13=Roll On Mississippi
TTITLE14=I Know One
TTITLE15=Wonder Could I Live There Anymore
TTITLE16=Snakes Crawl At Night
EXTD=YEAR: 2004
EXTT0=
EXTT1=
EXTT2=
EXTT3=
EXTT4=
EXTT5=
EXTT6=
EXTT7=
EXTT8=
EXTT9=
EXTT10=
EXTT11=
EXTT12=
EXTT13=
EXTT14=
EXTT15=
EXTT16=
PLAYORDER=
